<svg width="1174" height="324" xmlns="http://www.w3.org/2000/svg" xmlns:xlink="http://www.w3.org/1999/xlink" overflow="hidden"><defs><clipPath id="clip0"><path d="M23 138 1197 138 1197 462 23 462Z" fill-rule="evenodd" clip-rule="evenodd"/></clipPath><clipPath id="clip1"><path d="M24 117 214 117 214 320 24 320Z" fill-rule="evenodd" clip-rule="evenodd"/></clipPath><clipPath id="clip2"><path d="M24 156 214 156 214 359 24 359Z" fill-rule="evenodd" clip-rule="evenodd"/></clipPath><clipPath id="clip3"><path d="M24 195 214 195 214 397 24 397Z" fill-rule="evenodd" clip-rule="evenodd"/></clipPath><clipPath id="clip4"><path d="M931 59 1121 59 1121 261 931 261Z" fill-rule="evenodd" clip-rule="evenodd"/></clipPath><clipPath id="clip5"><path d="M931 98 1121 98 1121 300 931 300Z" fill-rule="evenodd" clip-rule="evenodd"/></clipPath><clipPath id="clip6"><path d="M931 136 1121 136 1121 339 931 339Z" fill-rule="evenodd" clip-rule="evenodd"/></clipPath><clipPath id="clip7"><path d="M313 98 372 98 372 300 313 300Z" fill-rule="evenodd" clip-rule="evenodd"/></clipPath><clipPath id="clip8"><path d="M313 136 372 136 372 339 313 339Z" fill-rule="evenodd" clip-rule="evenodd"/></clipPath><clipPath id="clip9"><path d="M313 175 372 175 372 378 313 378Z" fill-rule="evenodd" clip-rule="evenodd"/></clipPath><clipPath id="clip10"><path d="M313 214 372 214 372 417 313 417Z" fill-rule="evenodd" clip-rule="evenodd"/></clipPath><clipPath id="clip11"><path d="M313 253 372 253 372 456 313 456Z" fill-rule="evenodd" clip-rule="evenodd"/></clipPath><clipPath id="clip12"><path d="M313 292 372 292 372 495 313 495Z" fill-rule="evenodd" clip-rule="evenodd"/></clipPath><clipPath id="clip13"><path d="M313 331 372 331 372 533 313 533Z" fill-rule="evenodd" clip-rule="evenodd"/></clipPath></defs><g clip-path="url(#clip0)" transform="translate(-23 -138)"><path d="M23.357 238.044 214.333 238.044" stroke="#000000" stroke-width="2" stroke-linejoin="round" stroke-miterlimit="10" fill="none" fill-rule="evenodd"/><path d="M23.357 276.978 214.333 276.978" stroke="#000000" stroke-width="2" stroke-linejoin="round" stroke-miterlimit="10" fill="none" fill-rule="evenodd"/><path d="M24.357 198.111 24.357 316.911" stroke="#000000" stroke-width="2" stroke-linejoin="round" stroke-miterlimit="10" fill="none" fill-rule="evenodd"/><path d="M213.333 198.111 213.333 316.911" stroke="#000000" stroke-width="2" stroke-linejoin="round" stroke-miterlimit="10" fill="none" fill-rule="evenodd"/><path d="M23.357 199.111 214.333 199.111" stroke="#000000" stroke-width="2" stroke-linejoin="round" stroke-miterlimit="10" fill="none" fill-rule="evenodd"/><path d="M23.357 315.911 214.333 315.911" stroke="#000000" stroke-width="2" stroke-linejoin="round" stroke-miterlimit="10" fill="none" fill-rule="evenodd"/><g clip-path="url(#clip1)"><text fill="#0D0D0D" font-family="DengXian,DengXian_MSFontService,sans-serif" font-weight="700" font-size="24" transform="translate(33.957 226)">zerothElement</text></g><text fill="#0D0D0D" font-family="DengXian,DengXian_MSFontService,sans-serif" font-weight="700" font-size="24" transform="translate(192.29 226)">:</text><g clip-path="url(#clip2)"><text fill="#0D0D0D" font-family="DengXian,DengXian_MSFontService,sans-serif" font-weight="700" font-size="24" transform="translate(33.957 265)">len:2</text></g><g clip-path="url(#clip3)"><text fill="#0D0D0D" font-family="DengXian,DengXian_MSFontService,sans-serif" font-weight="700" font-size="24" transform="translate(33.957 304)">cap:3</text></g><path d="M930.527 179.644 1121.5 179.644" stroke="#000000" stroke-width="2" stroke-linejoin="round" stroke-miterlimit="10" fill="none" fill-rule="evenodd"/><path d="M930.527 218.578 1121.5 218.578" stroke="#000000" stroke-width="2" stroke-linejoin="round" stroke-miterlimit="10" fill="none" fill-rule="evenodd"/><path d="M931.527 139.711 931.527 258.511" stroke="#000000" stroke-width="2" stroke-linejoin="round" stroke-miterlimit="10" fill="none" fill-rule="evenodd"/><path d="M1120.5 139.711 1120.5 258.511" stroke="#000000" stroke-width="2" stroke-linejoin="round" stroke-miterlimit="10" fill="none" fill-rule="evenodd"/><path d="M930.527 140.711 1121.5 140.711" stroke="#000000" stroke-width="2" stroke-linejoin="round" stroke-miterlimit="10" fill="none" fill-rule="evenodd"/><path d="M930.527 257.511 1121.5 257.511" stroke="#000000" stroke-width="2" stroke-linejoin="round" stroke-miterlimit="10" fill="none" fill-rule="evenodd"/><g clip-path="url(#clip4)"><text fill="#0D0D0D" font-family="DengXian,DengXian_MSFontService,sans-serif" font-weight="700" font-size="24" transform="translate(941.127 168)">zerothElement</text></g><text fill="#0D0D0D" font-family="DengXian,DengXian_MSFontService,sans-serif" font-weight="700" font-size="24" transform="translate(1099.46 168)">:</text><g clip-path="url(#clip5)"><text fill="#0D0D0D" font-family="DengXian,DengXian_MSFontService,sans-serif" font-weight="700" font-size="24" transform="translate(941.127 206)">len:3</text></g><g clip-path="url(#clip6)"><text fill="#0D0D0D" font-family="DengXian,DengXian_MSFontService,sans-serif" font-weight="700" font-size="24" transform="translate(941.127 245)">cap:4</text></g><path d="M313.548 179.911 371.613 179.911 371.613 218.311 313.548 218.311Z" fill="#FFFFFF" fill-rule="evenodd"/><path d="M313.548 218.311 371.613 218.311 371.613 257.244 313.548 257.244Z" fill="#FFFFFF" fill-rule="evenodd"/><path d="M313.548 257.244 371.613 257.244 371.613 296.178 313.548 296.178Z" fill="#FFFFFF" fill-rule="evenodd"/><path d="M371.613 257.244 690.852 257.244 690.852 296.178 371.613 296.178Z" fill="#FFD966" fill-rule="evenodd"/><path d="M313.548 296.178 371.613 296.178 371.613 335.111 313.548 335.111Z" fill="#FFFFFF" fill-rule="evenodd"/><path d="M371.613 296.178 690.852 296.178 690.852 335.111 371.613 335.111Z" fill="#92D050" fill-rule="evenodd"/><path d="M313.548 335.111 371.613 335.111 371.613 374.044 313.548 374.044Z" fill="#FFFFFF" fill-rule="evenodd"/><path d="M371.613 335.111 690.852 335.111 690.852 374.044 371.613 374.044Z" fill="#8FAADC" fill-rule="evenodd"/><path d="M313.548 374.044 371.613 374.044 371.613 412.978 313.548 412.978Z" fill="#FFFFFF" fill-rule="evenodd"/><path d="M371.613 374.044 690.852 374.044 690.852 412.978 371.613 412.978Z" fill="#8FAADC" fill-rule="evenodd"/><path d="M313.548 412.978 371.613 412.978 371.613 451.911 313.548 451.911Z" fill="#FFFFFF" fill-rule="evenodd"/><path d="M371.613 412.978 690.852 412.978 690.852 451.911 371.613 451.911Z" fill="#FFFFFF" fill-rule="evenodd"/><path d="M371.613 178.911 371.613 452.911" stroke="#000000" stroke-width="2" stroke-linejoin="round" stroke-miterlimit="10" fill="none" fill-rule="evenodd"/><path d="M370.613 218.311 691.852 218.311" stroke="#000000" stroke-width="2" stroke-linejoin="round" stroke-miterlimit="10" fill="none" fill-rule="evenodd"/><path d="M370.613 257.244 691.852 257.244" stroke="#000000" stroke-width="2" stroke-linejoin="round" stroke-miterlimit="10" fill="none" fill-rule="evenodd"/><path d="M370.613 296.178 691.852 296.178" stroke="#000000" stroke-width="2" stroke-linejoin="round" stroke-miterlimit="10" fill="none" fill-rule="evenodd"/><path d="M370.613 335.111 691.852 335.111" stroke="#000000" stroke-width="2" stroke-linejoin="round" stroke-miterlimit="10" fill="none" fill-rule="evenodd"/><path d="M370.613 374.044 691.852 374.044" stroke="#000000" stroke-width="2" stroke-linejoin="round" stroke-miterlimit="10" fill="none" fill-rule="evenodd"/><path d="M370.613 412.978 691.852 412.978" stroke="#000000" stroke-width="2" stroke-linejoin="round" stroke-miterlimit="10" fill="none" fill-rule="evenodd"/><path d="M690.852 178.911 690.852 452.911" stroke="#000000" stroke-width="2" stroke-linejoin="round" stroke-miterlimit="10" fill="none" fill-rule="evenodd"/><path d="M370.613 179.911 691.852 179.911" stroke="#000000" stroke-width="2" stroke-linejoin="round" stroke-miterlimit="10" fill="none" fill-rule="evenodd"/><path d="M370.613 451.911 691.852 451.911" stroke="#000000" stroke-width="2" stroke-linejoin="round" stroke-miterlimit="10" fill="none" fill-rule="evenodd"/><g clip-path="url(#clip7)"><text fill="#0D0D0D" font-family="DengXian,DengXian_MSFontService,sans-serif" font-weight="700" font-size="24" transform="translate(348.648 207)">0</text></g><text fill="#0D0D0D" font-family="DengXian,DengXian_MSFontService,sans-serif" font-weight="700" font-size="24" transform="translate(495.649 207)">“Mon”</text><g clip-path="url(#clip8)"><text fill="#0D0D0D" font-family="DengXian,DengXian_MSFontService,sans-serif" font-weight="700" font-size="24" transform="translate(348.648 245)">1</text></g><text fill="#0D0D0D" font-family="DengXian,DengXian_MSFontService,sans-serif" font-weight="700" font-size="24" transform="translate(500.899 245)">“Tue”</text><g clip-path="url(#clip9)"><text fill="#0D0D0D" font-family="DengXian,DengXian_MSFontService,sans-serif" font-weight="700" font-size="24" transform="translate(348.648 284)">2</text></g><text fill="#0D0D0D" font-family="DengXian,DengXian_MSFontService,sans-serif" font-weight="700" font-size="24" transform="translate(495.649 284)">“Wed”</text><g clip-path="url(#clip10)"><text fill="#0D0D0D" font-family="DengXian,DengXian_MSFontService,sans-serif" font-weight="700" font-size="24" transform="translate(348.648 323)">3</text></g><text fill="#0D0D0D" font-family="DengXian,DengXian_MSFontService,sans-serif" font-weight="700" font-size="24" transform="translate(495.899 323)">“<tspan x="10.3333" y="0">Thur</tspan><tspan x="60.3333" y="0">”</tspan></text><g clip-path="url(#clip11)"><text fill="#0D0D0D" font-family="DengXian,DengXian_MSFontService,sans-serif" font-weight="700" font-size="24" transform="translate(348.648 362)">4</text></g><text fill="#0D0D0D" font-family="DengXian,DengXian_MSFontService,sans-serif" font-weight="700" font-size="24" transform="translate(507.316 362)">“Fri”</text><g clip-path="url(#clip12)"><text fill="#0D0D0D" font-family="DengXian,DengXian_MSFontService,sans-serif" font-weight="700" font-size="24" transform="translate(348.648 401)">5</text></g><text fill="#0D0D0D" font-family="DengXian,DengXian_MSFontService,sans-serif" font-weight="700" font-size="24" transform="translate(503.816 401)">“Sat”</text><g clip-path="url(#clip13)"><text fill="#0D0D0D" font-family="DengXian,DengXian_MSFontService,sans-serif" font-weight="700" font-size="24" transform="translate(348.648 440)">6</text></g><text fill="#0D0D0D" font-family="DengXian,DengXian_MSFontService,sans-serif" font-weight="700" font-size="24" transform="translate(500.399 440)">“Sun”</text><path d="M204.024 217 211.927 217.188 219.799 217.818 235.066 220.017 249.337 223.538 255.96 225.682 262.138 228.078 267.823 230.668 273.01 233.514 277.584 236.436 281.485 239.57 284.649 242.798 287.006 246.203 288.47 249.664 288.989 253.101 289.489 256.413 289.421 256.173 290.796 259.423 290.692 259.236 292.942 262.423 292.839 262.3 295.964 265.487 295.875 265.407 299.625 268.407 299.547 268.35 304.047 271.288 303.973 271.244 309.098 273.994 309.04 273.965 314.665 276.527 314.612 276.505 320.737 278.88 320.683 278.861 327.246 280.986 327.176 280.966 341.426 284.466 341.331 284.448 356.456 286.635 356.384 286.628 365.407 287.276 365.264 289.271 356.205 288.62 340.996 286.42 326.664 282.9 320.04 280.755 313.862 278.359 308.181 275.772 302.989 272.986 298.413 269.999 294.578 266.931 291.354 263.643 288.996 260.301 287.53 256.836 287.011 253.399 286.511 250.087 286.579 250.327 285.204 247.077 285.303 247.257 283.053 244.007 283.161 244.137 280.098 241.012 280.186 241.092 276.374 238.03 276.462 238.093 271.962 235.218 272.019 235.252 266.894 232.439 266.96 232.473 261.335 229.91 261.388 229.932 255.263 227.557 255.317 227.576 248.754 225.451 248.823 225.471 234.635 221.971 234.732 221.99 219.545 219.802 219.608 219.809 211.795 219.184 211.851 219.187 203.976 219ZM364.101 284.241 372 288.438 363.904 292.239Z" fill="#0D0D0D"/><path d="M0.0563619 0.99841-7.69364 1.43591-7.58822 1.42433-15.2132 2.67433-15.1193 2.65426-22.6818 4.65426-22.5951 4.62706-29.9701 7.31456-29.8909 7.28179-37.0159 10.5943-36.9312 10.5498-43.7437 14.5498-43.6825 14.5108-50.12 18.9483-50.0512 18.8965-56.1137 23.8965-56.051 23.8401-61.6135 29.2776-61.5579 29.2187-66.5579 34.9687-66.5027 34.8992-70.9402 41.0242-70.8844 40.9382-74.5719 47.3132-74.5298 47.2321-77.5923 53.8571-77.5487 53.7458-79.7362 60.4958-79.7069 60.3836-81.0819 67.2586-81.0651 67.1344-81.5651 74.0719-81.5855 73.7868-80.8355 77.2243-80.9577 76.9185-78.8327 80.4185-78.9931 80.2179-75.4306 83.6554-75.5487 83.5577-70.6737 86.9952-70.7711 86.9346-64.5836 90.3096-64.6493 90.2769-57.2118 93.6519-57.2665 93.629-48.6415 96.9415-48.6838 96.9263-38.9338 100.176-38.9652 100.166-28.0277 103.416-28.0593 103.408-16.1218 106.533-16.1402 106.528-3.20271 109.653-3.22707 109.647 10.7104 112.647 10.6937 112.644 25.5687 115.581 25.5546 115.579 41.3046 118.454 41.2888 118.451 57.8513 121.201 57.8374 121.199 75.1499 123.824 75.14 123.822 93.265 126.385 93.2539 126.383 112.004 128.821 111.993 128.82 131.431 131.132 131.418 131.131 151.418 133.256 151.412 133.255 172.037 135.317 172.029 135.317 193.092 137.254 193.081 137.253 214.643 139.003 214.633 139.003 236.633 140.565 236.622 140.564 281.56 143.252 281.543 143.251 327.668 145.251 327.652 145.25 374.527 146.5 374.509 146.5 415.03 146.876 415.012 148.876 374.482 148.5 327.59 147.249 281.448 145.249 236.497 142.56 214.487 140.997 192.914 139.246 171.842 137.308 151.21 135.245 131.201 133.119 111.751 130.805 92.9905 128.366 74.8551 125.802 57.5306 123.175 40.9533 120.423 25.1883 117.545 10.2979 114.604-3.66014 111.6-16.619 108.47-28.5816 105.338-39.5506 102.079-49.3375 98.8166-58.0112 95.4854-65.5091 92.083-71.7793 88.6629-76.7641 85.148-80.4751 81.5672-82.7539 77.8138-83.5703 74.0721-83.0554 66.928-81.6567 59.9344-79.4328 53.0723-76.326 46.3514-72.5899 39.8924-68.0962 33.6898-63.0405 27.8757-57.4188 22.3804-51.2905 17.3261-44.7876 12.8435-37.9025 8.8009-30.6952 5.45013-23.2371 2.73237-15.5842 0.708448-7.85937-0.557918-0.0563619-0.99841ZM413.725 143.863 421.687 147.937 413.651 151.863Z" fill="#0D0D0D" transform="matrix(-1 -8.74228e-08 -8.74228e-08 1 1112.66 169)"/><path d="M691 297 853.3 297" stroke="#000000" stroke-width="2" stroke-miterlimit="8" stroke-dasharray="16 6 2 6" fill="none" fill-rule="evenodd"/><path d="M855 296 855 452.169" stroke="#000000" stroke-width="2" stroke-miterlimit="8" stroke-dasharray="16 6 2 6" fill="none" fill-rule="evenodd"/><path d="M0 0 166.18 0.000104987" stroke="#000000" stroke-width="2" stroke-miterlimit="8" stroke-dasharray="16 6 2 6" fill="none" fill-rule="evenodd" transform="matrix(-1 -8.74228e-08 -8.74228e-08 1 857.18 452)"/><text font-family="DengXian,DengXian_MSFontService,sans-serif" font-weight="700" font-size="24" transform="matrix(-1.83697e-16 -1 1 -1.83697e-16 875.692 408)">cap=<tspan x="55" y="1.01033e-14">4</tspan></text><path d="M689 298 754.013 298" stroke="#000000" stroke-width="2" stroke-miterlimit="8" stroke-dasharray="16 6 2 6" fill="none" fill-rule="evenodd"/><path d="M755 297 755 414.379" stroke="#000000" stroke-width="2" stroke-miterlimit="8" stroke-dasharray="16 6 2 6" fill="none" fill-rule="evenodd"/><path d="M0 0 66.5673 0.000104987" stroke="#000000" stroke-width="2" stroke-miterlimit="8" stroke-dasharray="16 6 2 6" fill="none" fill-rule="evenodd" transform="matrix(-1 -8.74228e-08 -8.74228e-08 1 755.567 415)"/><text font-family="DengXian,DengXian_MSFontService,sans-serif" font-weight="700" font-size="24" transform="matrix(-1.83697e-16 -1 1 -1.83697e-16 773.373 391)">len<tspan x="34" y="6.2457e-15">=</tspan><tspan x="50" y="9.18485e-15">3</tspan></text><path d="M370.598 337 318 337" stroke="#000000" stroke-width="2" stroke-miterlimit="8" stroke-dasharray="16 6 2 6" fill="none" fill-rule="evenodd"/><path d="M317 337.866 317 260" stroke="#000000" stroke-width="2" stroke-miterlimit="8" stroke-dasharray="16 6 2 6" fill="none" fill-rule="evenodd"/><path d="M0 0 53.8559 0.000104987" stroke="#000000" stroke-width="2" stroke-miterlimit="8" stroke-dasharray="16 6 2 6" fill="none" fill-rule="evenodd" transform="matrix(1 -0 -0 -1 316 260)"/><path d="M372.046 374 254 374" stroke="#000000" stroke-width="2" stroke-miterlimit="8" stroke-dasharray="16 6 2 6" fill="none" fill-rule="evenodd"/><path d="M253 374.799 253 258" stroke="#000000" stroke-width="2" stroke-miterlimit="8" stroke-dasharray="16 6 2 6" fill="none" fill-rule="evenodd"/><path d="M0 0 120.868 0.000104987" stroke="#000000" stroke-width="2" stroke-miterlimit="8" stroke-dasharray="16 6 2 6" fill="none" fill-rule="evenodd" transform="matrix(1 -0 -0 -1 251 258)"/><text font-family="DengXian,DengXian_MSFontService,sans-serif" font-weight="700" font-size="24" transform="matrix(6.12323e-17 1 -1 6.12323e-17 236.482 302)">cap=3<tspan x="-21" y="-58.3948">len</tspan><tspan x="12" y="-58.3948">=2</tspan></text></g></svg>